/* XPM */
static char *b89d54448a71465e8d74e13c0380209esROrzWPqpTR95AE4[] = {
/* columns rows colors chars-per-pixel */
"32 32 5 1 ",
"  c None",
". c #3F2832",
"X c #743F39",
"o c #B86F50",
"O c #124E89",
/* pixels */
"                                ",
"                                ",
"                                ",
"                                ",
"            oooooooo            ",
"           oXXXXXXXXo           ",
"           oXXooooXXo           ",
"           oXXXXXXXXo           ",
"           oXXXXXXXXo           ",
"           oX......Xo           ",
"           o.XooooX.o           ",
"           o.XooooX.o           ",
"           oXXXXXXXXo           ",
"           oXXooooXXo           ",
"           oXXooooXXo           ",
"           oXXXXXXXXo           ",
"           oX......Xo           ",
"           o.XooooX.o           ",
"           o.XooooX.o           ",
"           oXXoooooXo           ",
"           oXXoooooXo           ",
"           oXXoooooXo           ",
"           XoXXoooXoX           ",
"           XoXXoooXoX           ",
"           OoXXXooXoO           ",
"            XoXXoXoX            ",
"            OXoXXoXO            ",
"             OXooXO             ",
"             OXooXO             ",
"              OXXO              ",
"               OO               ",
"                                "
};
