/* XPM */
static char *b1f237c3a51d4f6ec9450099efaaac56wKCcEDM5xh6BQSkt[] = {
/* columns rows colors chars-per-pixel */
"32 32 5 1 ",
"  c None",
". c #3F2832",
"X c #743F39",
"o c #B86F50",
"O c #124E89",
/* pixels */
"                                ",
"                                ",
"                                ",
"               oo               ",
"               oo               ",
"              oXXo              ",
"             oXXoXo             ",
"            oXXXooXo            ",
"            oXXoooXo            ",
"            oXXoooXo            ",
"           oXXoooooXo           ",
"           oXXoooooXo           ",
"           oXXoooooXo           ",
"           oXXXXXXXXo           ",
"           oX......Xo           ",
"           o.XooooX.o           ",
"           o.XooooX.o           ",
"           oXXXXXXXXo           ",
"           oXXooooXXo           ",
"           oXXooooXXo           ",
"           oXXXXXXXXo           ",
"           oX......Xo           ",
"           o.XooooX.o           ",
"           o.XooooX.o           ",
"           oXXXXXXXXo           ",
"           oXXooooXXo           ",
"           oXXXXXXXXo           ",
"            oooooooo            ",
"            XXXXXXXX            ",
"            OXXXXXXO            ",
"             OOOOOO             ",
"                                "
};
