/* XPM */
static char *_179513ae1b140a8d1b5bd3a35f989b79pB5OYxuFbLHvGqB[] = {
/* columns rows colors chars-per-pixel */
"32 32 9 1 ",
"  c None",
". c #181425",
"X c #3F2832",
"o c #743F39",
"O c #B86F50",
"+ c #FEAE34",
"@ c #FEE761",
"# c #C0CBDC",
"$ c white",
/* pixels */
"                                ",
"                                ",
"                                ",
"                                ",
"                                ",
"                                ",
"                                ",
"                                ",
"       $                $       ",
"       $OOOOOOOOOOOOOOOO$       ",
"       $XooooooooooooooX$       ",
"       @XooooooooooooooX@       ",
"       $XooooooooooooooX$       ",
"       @XXooooooooooooXX@       ",
"       +XXXXXXXXXXXXXXXX+       ",
"       ++++++++..++++++++       ",
"       ........$$........       ",
"       +XXXXXX.##.XXXXXX+       ",
"       +XoooooX..XoooooX+       ",
"       @XooooooXXooooooX@       ",
"       @XooooooooooooooX@       ",
"       .@oooooooooooooo@.       ",
"       +.@@$$$$$$$$$@$@.+       ",
"                                ",
"                                ",
"                                ",
"                                ",
"                                ",
"                                ",
"                                ",
"                                ",
"                                "
};
