/* XPM */
static char *_440e15b930a41f7ed7e5326a0dd2d1eqovmzCa5Jg1etg3l[] = {
/* columns rows colors chars-per-pixel */
"32 32 6 1 ",
"  c None",
". c #743F39",
"X c #B86F50",
"o c #124E89",
"O c #639BFF",
"+ c white",
/* pixels */
"                                ",
"                                ",
"              + +               ",
"                 +              ",
"           ..... +              ",
"           .XXX.                ",
"          .XX..o                ",
"         .XX..o                 ",
"        .XX..o                  ",
"       .XX..o                   ",
"       .X..o     +              ",
"      .X..o       +     .       ",
"     .XX.o     X. +     .       ",
"     .X..o   XX.o       .       ",
"    .X..o  XX.oo +      .       ",
"   .X..o X..oo          .       ",
"+ .X..o  .oo            .o      ",
"  ...o                  .       ",
"+  oo       ++          .o      ",
" ++            +        .o+     ",
"             ..         o       ",
"          ..XXX.        ++      ",
"         ..XXXXX..              ",
"         o.....XX..             ",
"         Ooo......X.            ",
"            ooo......           ",
"               oo.....          ",
"                 oo.... +       ",
"                   oooo +       ",
"                       +        ",
"                                ",
"                                "
};
