/* XPM */
static char *c1f25f3cddf84afe88786c828cf7d9c5Diwfq4zQfDGGmTaC[] = {
/* columns rows colors chars-per-pixel */
"32 32 5 1 ",
"  c None",
". c #3F2832",
"X c #743F39",
"o c #B86F50",
"O c #124E89",
/* pixels */
"                                ",
"                                ",
"                                ",
"                                ",
"                                ",
"                                ",
"                                ",
"                                ",
"                                ",
"                                ",
"                                ",
"                                ",
"       oooooooooooooooooooooo   ",
"    oooXXXXX..XXXXXXX..XXXXXo   ",
"  ooXXXXXXX.XXXXXXXX.XXXXXXXo   ",
" oXXXXXoooX.ooXooooX.ooXoooXo   ",
"  ooooooooX.ooXooooX.ooXoooXo   ",
"   XooooooX.ooXooooX.ooXoooXo   ",
"    XXoooXX.ooXooooX.ooXoooXo   ",
"    OOXXooooooooooooooooooooo   ",
"     OOXXXXXXXXXXXXXXXXXXXXX    ",
"      OOOXXXXXXXXXXXXXXXXXXO    ",
"       OOOOOOOOOOOOOOOOOOOOO    ",
"         OOOOOOOOOOOOOOOOOO     ",
"                                ",
"                                ",
"                                ",
"                                ",
"                                ",
"                                ",
"                                ",
"                                "
};
