/* XPM */
static char *cc72a8624a44407aa746234a34fc118dwW21AxAnB1l3ZK9r[] = {
/* columns rows colors chars-per-pixel */
"32 32 12 1 ",
"  c None",
". c #181425",
"X c #3F2832",
"o c #743F39",
"O c #63C74D",
"+ c #FEAE34",
"@ c #FEE761",
"# c #124E89",
"$ c #2CE8F5",
"% c #8B9BB4",
"& c #C0CBDC",
"* c white",
/* pixels */
"                                ",
"                                ",
"               ..               ",
"              .&%.              ",
"       **@*@@@@@@@@@@**@*       ",
"       +oooooooooooooooo+       ",
"       +XXXXXXXXXXXXXXXX+       ",
"       +XXXXXXXXXXXXXXXX+       ",
"       +XXXXXXXXXXXXXXXX+       ",
"       +ooXXXXXXXXXXXXoo+       ",
"       +oooooooooooooooo+       ",
"       ++++++++++++++++++       ",
"       +oooooooooooooooo+       ",
"       @ooXXXX*@O*@XXXoo@       ",
"       @XXX**$@@@@@*+XXX@       ",
"       *.+#+++*++++++O..*       ",
"       **@*@@@@@@@@@@*@**       ",
"       *XXXXXXXXXXXXXXXX*       ",
"       @XooooooooooooooX@       ",
"       @XooooooooooooooX@       ",
"       @XooooooooooooooX@       ",
"       .@oooooooooooooo@.       ",
"       +.@@*********@*@.+       ",
"                                ",
"                                ",
"                                ",
"                                ",
"                                ",
"                                ",
"                                ",
"                                ",
"                                "
};
