/* XPM */
static char *_6b7a9ee080e42b3f343ab3de69fddd3MLnrHCyIc2h7qFO1[] = {
/* columns rows colors chars-per-pixel */
"32 32 55 1 ",
"  c None",
". c #2C2D25",
"X c #2F3228",
"o c #32352B",
"O c #35392E",
"+ c #3A3D32",
"@ c #3D4135",
"# c #424637",
"$ c #434639",
"% c #45493C",
"& c #4A4F40",
"* c #4E5343",
"= c #515646",
"- c #535946",
"; c #535748",
": c #565A4A",
"> c #595E4D",
", c #5C614F",
"< c #5E6351",
"1 c #616653",
"2 c #646956",
"3 c #666C58",
"4 c #696E5A",
"5 c #6C725D",
"6 c #6F7561",
"7 c #717762",
"8 c #747A64",
"9 c #787F67",
"0 c #777C68",
"q c #797F6A",
"w c #7C826C",
"e c #7F8571",
"r c #818672",
"t c #848A75",
"y c #878C79",
"u c #898E7A",
"i c #8B917E",
"p c #8E9381",
"a c #919785",
"s c #949987",
"d c #969A89",
"f c #999E8E",
"g c #9B9F90",
"h c #9DA292",
"j c #A1A597",
"k c #A3A799",
"l c #A5A99C",
"z c #ABAEA2",
"x c #ADB1A5",
"c c #B2B5AA",
"v c #B6B8AF",
"b c #B7B9B0",
"n c #B9BCB3",
"m c #BEC1B9",
"M c #C3C5BE",
/* pixels */
"              4>=*              ",
"            842rd0>=            ",
"           6wikvndw,*           ",
"           3dvvnxsu4=*          ",
"          :8ghgyw0w2=:-**       ",
"        7>*8ua0q5=>:1ww2>@      ",
"      ikgi03tpsks2==0ut31*      ",
"      lMMzhw8ahddw:>wi71,%      ",
"     0kncka36zxzly,,u823>*@     ",
"     -8p08w,rbvblr1:q225>**@+   ",
"    ,5ww458,rhvld01>4242*:=:*X  ",
"   8gkuwfdt1trfyw3>::<<*<<>3:*  ",
"   hckysxlr188ww,,>**:=>5<<1=-  ",
"  wlnkulcp2>>164=>=**=<56,155:o ",
"  wlnuivk87sy<>4,4,=*=:,3><53,# ",
"  tlhwkxf4kMnhpzkfw1:552:=14<>* ",
"  rttrkiytnnchhbvxy,9tiw7-=1::: ",
"  u83uht4tcvkdcnbxa:utit5===;>> ",
"  4=2hh23eypwrxnxi8-8rw5:->>-::.",
"   %0dp>5wy315fkl01>235,--22=== ",
"    we8<thz8>2tst,>,404::;<1*+  ",
"    4<,rlnx5<qr882<,5w7:<:><*X  ",
"     $,hnxf8<hde7>,-404<2,=>-   ",
"      1hhdy55xksi54=,w1,,:*;;   ",
"      2spew5pbnlpw8;;52,-*%O    ",
"      8yq66<hbckyw5**<2>@+X     ",
"       031<6lczsw84**,:$        ",
"        ;::ehhdu353**-*         ",
"         = <eytw>33*%*+         ",
"            *8w4*>*.            ",
"              ,>%*o             ",
"                                "
};
